<?xml version="1.0" encoding="UTF-8" standalone="no"?>
<!DOCTYPE svg PUBLIC "-//W3C//DTD SVG 1.1//EN" "http://www.w3.org/Graphics/SVG/1.1/DTD/svg11.dtd">
<svg xmlns="http://www.w3.org/2000/svg" version="1.1" viewBox="0.00 0.00 512.00 512.00">
<path fill="#000000" d="
  M 65.49 445.73
  L 65.51 66.26
  A 0.76 0.76 0.0 0 1 66.27 65.50
  L 445.73 65.50
  A 0.76 0.76 0.0 0 1 446.49 66.26
  L 446.48 445.73
  A 0.76 0.76 0.0 0 1 445.72 446.49
  L 66.25 446.49
  A 0.76 0.76 0.0 0 1 65.49 445.73
  Z
  M 160.75 224.26
  L 160.76 255.69
  A 0.31 0.31 0.0 0 1 160.45 256.00
  L 129.75 256.00
  A 0.75 0.74 90.0 0 0 129.01 256.75
  L 129.00 287.25
  A 0.50 0.50 0.0 0 1 128.50 287.75
  L 97.76 287.75
  Q 97.26 287.75 97.26 288.24
  L 97.26 351.00
  A 0.24 0.24 0.0 0 0 97.50 351.24
  L 128.50 351.24
  A 0.50 0.50 0.0 0 0 129.00 350.74
  L 129.00 320.00
  A 0.51 0.51 0.0 0 1 129.51 319.49
  L 160.25 319.50
  A 0.50 0.50 0.0 0 1 160.75 320.00
  L 160.76 350.99
  A 0.26 0.25 -90.0 0 1 160.51 351.25
  L 129.50 351.25
  A 0.50 0.50 0.0 0 0 129.00 351.75
  L 129.00 382.75
  A 0.25 0.25 0.0 0 1 128.75 383.00
  L 97.51 383.00
  Q 97.26 383.00 97.26 383.24
  L 97.26 414.25
  A 0.49 0.49 0.0 0 0 97.75 414.74
  L 255.50 414.74
  A 0.50 0.49 -0.0 0 0 256.00 414.25
  L 256.01 384.00
  A 1.01 1.01 0.0 0 0 255.00 382.99
  L 224.53 383.00
  A 0.28 0.28 0.0 0 1 224.25 382.72
  L 224.25 351.25
  L 255.49 351.28
  Q 256.00 351.28 256.00 351.79
  L 256.00 381.80
  A 1.18 1.18 0.0 0 0 257.18 382.98
  L 287.25 383.00
  Q 287.75 383.00 287.75 383.50
  L 287.75 414.24
  A 0.50 0.50 0.0 0 0 288.25 414.74
  L 350.97 414.74
  A 0.27 0.27 0.0 0 0 351.24 414.47
  L 351.23 383.00
  L 382.49 383.00
  A 0.51 0.51 0.0 0 1 383.00 383.51
  L 383.00 414.24
  A 0.50 0.49 90.0 0 0 383.49 414.74
  L 414.24 414.74
  A 0.50 0.50 0.0 0 0 414.74 414.24
  Q 414.74 256.25 414.74 97.68
  Q 414.74 97.39 414.31 97.27
  A 0.13 0.04 28.2 0 0 414.26 97.26
  L 97.50 97.26
  A 0.24 0.24 0.0 0 0 97.26 97.50
  L 97.26 255.50
  A 0.50 0.50 0.0 0 0 97.76 256.00
  L 128.00 256.02
  A 1.03 1.02 0.0 0 0 129.03 255.00
  L 129.00 224.55
  A 0.30 0.30 0.0 0 1 129.30 224.25
  L 160.75 224.26
  Z"
/>
<path fill="#000000" d="
  M 351.23 160.76
  L 288.26 160.75
  Q 287.75 160.75 287.75 160.24
  L 287.75 129.25
  A 0.25 0.25 0.0 0 1 288.00 129.00
  L 350.71 129.00
  Q 351.20 129.00 351.20 129.49
  L 351.23 160.76
  Z"
/>
<path fill="#000000" d="
  M 287.76 224.24
  L 256.28 224.25
  A 0.28 0.28 0.0 0 1 256.00 223.97
  L 256.00 161.00
  Q 256.00 160.75 256.25 160.75
  L 287.23 160.76
  Q 287.75 160.76 287.75 161.27
  L 287.76 224.24
  Z"
/>
<path fill="#000000" d="
  M 351.23 160.76
  L 382.72 160.76
  A 0.28 0.27 0.0 0 1 383.00 161.03
  L 383.00 223.70
  Q 383.00 224.19 382.51 224.19
  L 351.23 224.24
  L 351.23 160.76
  Z"
/>
<path fill="#000000" d="
  M 224.26 256.01
  L 192.94 255.99
  A 0.45 0.45 0.0 0 1 192.49 255.54
  L 192.55 225.22
  A 0.96 0.96 0.0 0 0 191.59 224.26
  L 160.75 224.26
  L 160.75 192.78
  A 0.28 0.28 0.0 0 1 161.03 192.50
  L 191.76 192.50
  A 0.77 0.76 0.0 0 1 192.53 193.26
  L 192.47 223.24
  Q 192.47 224.27 193.49 224.27
  L 223.70 224.24
  Q 224.20 224.24 224.21 224.75
  L 224.26 256.01
  Z"
/>
<path fill="#000000" d="
  M 287.76 224.24
  L 351.23 224.24
  L 351.19 255.51
  Q 351.19 256.00 350.71 256.00
  L 288.04 256.00
  Q 287.77 256.00 287.76 255.72
  L 287.76 224.24
  Z"
/>
<path fill="#000000" d="
  M 224.26 256.01
  L 255.42 256.08
  Q 255.92 256.08 255.92 256.58
  L 255.99 287.75
  L 224.83 287.66
  Q 224.33 287.66 224.33 287.16
  L 224.26 256.01
  Z"
/>
<path fill="#000000" d="
  M 224.25 351.25
  L 193.06 351.20
  Q 192.56 351.20 192.56 350.71
  Q 192.43 340.87 192.67 326.26
  Q 192.72 323.05 192.38 320.96
  Q 192.15 319.52 190.69 319.52
  L 160.99 319.48
  A 0.24 0.24 0.0 0 1 160.75 319.24
  L 160.75 288.25
  Q 160.75 287.75 161.25 287.75
  L 191.89 287.75
  Q 192.53 287.75 192.53 288.39
  L 192.44 317.98
  Q 192.44 319.26 193.72 319.39
  Q 197.27 319.73 200.49 319.69
  Q 212.00 319.57 223.61 319.44
  Q 224.21 319.43 224.21 320.04
  L 224.25 351.25
  Z"
/>
<path fill="#000000" d="
  M 255.99 287.75
  L 287.17 287.83
  Q 287.67 287.83 287.67 288.33
  L 287.75 319.49
  L 256.40 319.50
  A 0.41 0.40 -90.0 0 1 256.00 319.09
  L 255.99 287.75
  Z"
/>
<path fill="#000000" d="
  M 287.75 319.49
  L 319.11 319.51
  A 0.42 0.41 -90.0 0 1 319.52 319.93
  L 319.50 351.25
  L 288.33 351.17
  Q 287.83 351.17 287.83 350.67
  L 287.75 319.49
  Z"
/>
<path fill="#000000" d="
  M 319.50 351.25
  L 350.66 351.34
  Q 351.16 351.34 351.16 351.84
  L 351.23 383.00
  L 319.90 382.99
  A 0.41 0.41 0.0 0 1 319.49 382.58
  L 319.50 351.25
  Z"
/>
</svg>
