<svg width="1081" height="460" viewBox="0 0 1081 460" fill="none" xmlns="http://www.w3.org/2000/svg">
<rect width="1081" height="460" rx="98" fill="white"/>
<path d="M199 237V225H187V201H199V189H187V165H199V153H247V165H259V189H247V201H271V225H259V237H199ZM223 189H247V165H211V177H223V189ZM199 225H247V213H223V201H199V225ZM295 237V225H283V153H307V177H355V189H367V225H355V237H295ZM307 225H343V189H307V225ZM415 165V153H439V165H415ZM391 237V225H415V189H403V177H439V225H463V237H391ZM511 237V189H487V177H511V153H535V177H559V189H535V237H511ZM595 237V225H583V213H571V177H583V165H595V153H643V165H655V177H631V165H607V177H595V213H607V225H631V213H655V225H643V237H595ZM667 237V153H691V177H739V189H751V237H727V189H691V237H667ZM775 237V225H763V213H775V201H823V189H775V177H835V189H847V237H775ZM787 225H823V213H787V225ZM895 237V189H871V177H895V153H919V177H943V189H919V237H895Z" fill="black"/>
<path d="M998.44 77H948.24H865.49H772.21H739.49C739.39 77.0133 739.29 77.0133 739.19 77H734.43H648.94H644.38H606.23H535.47H426.14H397.43H299.25H293.38H260.92H203.47H202.95H197.45H104.83V97.45C104.83 98.07 105.14 98.38 105.76 98.38H997.75C997.912 98.38 998.067 98.4453 998.181 98.5616C998.296 98.6779 998.36 98.8356 998.36 99L998.37 119.29C998.37 119.401 998.414 119.508 998.493 119.587C998.572 119.666 998.679 119.71 998.79 119.71L1018.71 119.72C1018.97 119.72 1019.22 119.824 1019.41 120.01C1019.6 120.196 1019.7 120.447 1019.7 120.71L1019.71 268.24C1019.71 268.359 1019.66 268.474 1019.58 268.558C1019.49 268.643 1019.38 268.69 1019.26 268.69L998.83 268.71C998.708 268.71 998.591 268.758 998.505 268.845C998.418 268.931 998.37 269.048 998.37 269.17L998.39 289.66C998.39 289.737 998.358 289.811 998.302 289.865C998.246 289.919 998.17 289.95 998.09 289.95L296.99 289.94C296.71 289.94 296.567 290.083 296.56 290.37L296.55 310.79C296.763 311.083 297.163 311.23 297.75 311.23C524.17 311.257 750.607 311.263 977.06 311.25L997.96 311.2C998.293 311.2 998.46 311.033 998.46 310.7L998.43 290.53C998.43 290.177 998.61 290 998.97 290H1019.5C1019.56 290 1019.62 289.974 1019.67 289.927C1019.71 289.88 1019.74 289.816 1019.74 289.75V269.52C1019.74 269.412 1019.76 269.306 1019.8 269.206C1019.84 269.107 1019.9 269.016 1019.98 268.94C1020.06 268.864 1020.15 268.804 1020.25 268.762C1020.35 268.721 1020.45 268.7 1020.56 268.7L1041 268.66V119.67L1020.5 119.73C1020.29 119.73 1020.09 119.647 1019.94 119.499C1019.79 119.35 1019.71 119.15 1019.71 118.94L1019.76 99.06C1019.76 98.8717 1019.69 98.6911 1019.55 98.558C1019.42 98.4248 1019.25 98.35 1019.06 98.35L999.48 98.32C999.207 98.32 998.945 98.2115 998.752 98.0183C998.559 97.8252 998.45 97.5632 998.45 97.29L998.44 77Z" fill="black"/>
<path d="M62.2696 141.02L62.2195 268.12C62.2195 268.274 62.2807 268.421 62.3895 268.53C62.4982 268.639 62.6457 268.7 62.7996 268.7L82.9396 268.68C83.2596 268.68 83.4529 268.523 83.5196 268.21C83.5663 267.977 83.5663 267.747 83.5196 267.52L83.5296 120.44C83.5296 120.246 83.6065 120.061 83.7434 119.924C83.8803 119.787 84.066 119.71 84.2596 119.71L104.43 119.69C104.528 119.69 104.622 119.651 104.691 119.581C104.761 119.512 104.8 119.418 104.8 119.32L104.81 98.7498C104.81 98.6411 104.767 98.5368 104.692 98.4599C104.617 98.383 104.516 98.3398 104.41 98.3398H84.0796C83.9258 98.3398 83.7782 98.401 83.6694 98.5097C83.5607 98.6185 83.4996 98.766 83.4996 98.9198L83.5096 119.08C83.5096 119.467 83.3129 119.66 82.9196 119.66L62.7596 119.71C62.4129 119.71 62.2396 119.883 62.2396 120.23L62.2696 141.02Z" fill="black"/>
<path d="M41.0003 140.91V289.89L61.7603 290.01C62.107 290.01 62.2803 290.183 62.2803 290.53L62.2303 310.49C62.2303 310.692 62.3104 310.885 62.4529 311.028C62.5954 311.17 62.7887 311.25 62.9903 311.25L82.7803 311.26C83.2937 311.26 83.5503 311.517 83.5503 312.03L83.5303 331.54C83.5303 331.811 83.6367 332.07 83.8261 332.261C84.0155 332.453 84.2724 332.56 84.5403 332.56L189.64 332.58C189.711 332.58 189.78 332.594 189.845 332.621C189.91 332.649 189.969 332.689 190.019 332.739C190.068 332.789 190.107 332.849 190.133 332.914C190.159 332.98 190.172 333.05 190.17 333.12L190.14 353.8L199.31 353.61C198.684 353.457 198.05 353.38 197.41 353.38C197.25 353.38 197.167 353.3 197.16 353.14V353.13C197.16 352.983 197.234 352.904 197.38 352.89C199.467 352.77 201.527 352.767 203.56 352.88C203.72 352.887 203.794 352.974 203.78 353.14L203.75 353.4C203.75 353.42 203.74 353.427 203.72 353.42C203.147 353.293 202.637 353.377 202.19 353.67L211.28 353.78L211.31 311.21C211.317 311.223 211.32 311.233 211.32 311.24L105.3 311.23C104.947 311.23 104.77 311.057 104.77 310.71L104.82 290.53C104.82 290.384 104.763 290.244 104.662 290.141C104.561 290.038 104.424 289.98 104.28 289.98L84.1303 289.99C83.717 289.99 83.5103 289.787 83.5103 289.38L83.5403 269.26C83.5403 268.96 83.6936 268.803 84.0003 268.79L87.8003 268.65C84.9936 268.797 83.567 268.42 83.5203 267.52C83.567 267.747 83.567 267.977 83.5203 268.21C83.4537 268.523 83.2603 268.68 82.9403 268.68L62.8003 268.7C62.6465 268.7 62.499 268.639 62.3902 268.53C62.2814 268.422 62.2203 268.274 62.2203 268.12L62.2703 141.02L41.0003 140.91Z" fill="#BFBFBF"/>
<path d="M87.8003 268.65L84.0003 268.79C83.6936 268.804 83.5403 268.96 83.5403 269.26L83.5103 289.38C83.5103 289.787 83.717 289.99 84.1303 289.99L104.28 289.98C104.424 289.98 104.561 290.038 104.662 290.141C104.763 290.245 104.82 290.385 104.82 290.53L104.77 310.71C104.77 311.057 104.947 311.23 105.3 311.23L211.32 311.24L211.31 290.31C211.31 290.084 211.197 289.97 210.97 289.97L105.74 289.94C105.1 289.94 104.78 289.624 104.78 288.99L104.81 269.26C104.81 268.927 104.644 268.76 104.31 268.76L87.8003 268.65Z" fill="black"/>
<path d="M296.55 310.79C296.543 311.063 296.457 311.223 296.29 311.27L296.55 332.44L976.86 332.56C976.942 332.56 977.021 332.527 977.079 332.469C977.137 332.411 977.17 332.332 977.17 332.25L977.06 311.25C750.607 311.263 524.17 311.257 297.75 311.23C297.163 311.23 296.763 311.083 296.55 310.79Z" fill="#BFBFBF"/>
<path d="M296.29 311.27L275.73 311.31C275.41 311.31 275.25 311.47 275.25 311.79V353.25C275.25 353.59 275.08 353.76 274.74 353.76L254.32 353.78C254.214 353.78 254.112 353.822 254.037 353.897C253.962 353.972 253.92 354.073 253.92 354.18L253.99 374.48C253.99 374.67 253.914 374.854 253.779 374.989C253.644 375.124 253.461 375.2 253.27 375.2L211.61 375.13C211.53 375.13 211.454 375.097 211.398 375.039C211.341 374.981 211.31 374.902 211.31 374.82L211.28 353.78L202.19 353.67L199.31 353.61L190.14 353.8L190.05 374.99L189.96 395.74C189.96 396.073 189.793 396.24 189.46 396.24L168.75 396.34V417.64L190 417.71L211.35 417.65L211.33 396.7C211.33 396.607 211.367 396.518 211.432 396.452C211.498 396.386 211.587 396.35 211.68 396.35L233.06 396.37L253.57 396.42C253.87 396.42 254.02 396.27 254.02 395.97L253.96 375.96C253.953 375.406 254.23 375.13 254.79 375.13L274.64 375.22C275.06 375.226 275.27 375.023 275.27 374.61V354.45C275.27 354.023 275.486 353.806 275.92 353.8L295.99 353.77C296.33 353.763 296.5 353.593 296.5 353.26L296.55 332.44L296.29 311.27Z" fill="black"/>
<path d="M211.31 311.21L211.28 353.78L232.35 353.75C232.563 353.75 232.67 353.643 232.67 353.43V311.7C232.67 311.578 232.623 311.461 232.538 311.375C232.454 311.288 232.339 311.24 232.22 311.24L211.31 311.21Z" fill="black"/>
<path d="M199.31 353.61L202.19 353.67C202.636 353.377 203.146 353.294 203.72 353.42C203.74 353.427 203.75 353.42 203.75 353.4L203.78 353.14C203.793 352.974 203.72 352.887 203.56 352.88C201.526 352.767 199.466 352.77 197.38 352.89C197.233 352.904 197.16 352.984 197.16 353.13V353.14C197.166 353.3 197.25 353.38 197.41 353.38C198.05 353.38 198.683 353.457 199.31 353.61Z" fill="#FBFAFF"/>
<path d="M190.05 374.99L169.29 375.09C169.152 375.09 169.02 375.145 168.922 375.243C168.825 375.34 168.77 375.472 168.77 375.61L168.75 396.34L189.46 396.24C189.793 396.24 189.96 396.074 189.96 395.74L190.05 374.99Z" fill="#BFBFBF"/>
<path d="M211.35 417.65L232.28 417.68C232.405 417.68 232.526 417.63 232.615 417.543C232.705 417.455 232.757 417.335 232.76 417.21L233.06 396.37L211.68 396.35C211.587 396.35 211.498 396.386 211.432 396.452C211.366 396.518 211.33 396.607 211.33 396.7L211.35 417.65Z" fill="#BFBFBF"/>
<path d="M168.75 417.64L148.72 417.61C147.82 417.61 147.37 418.06 147.37 418.96V437.81C147.37 438.09 147.487 438.31 147.72 438.47C148.147 438.75 148.77 438.927 149.59 439H190.07L190 417.71L168.75 417.64Z" fill="#BFBFBF"/>
</svg>
